<svg id="icons" xmlns="http://www.w3.org/2000/svg" viewBox="0 0 52 54"><defs><style>.cls-1{fill:#424242;}</style></defs><title>box</title><path class="cls-1" d="M51,9.75a1,1,0,0,0-.18-.37L45,2a5.57,5.57,0,0,0-4-2H11A5.57,5.57,0,0,0,7,2L1.21,9.39A1,1,0,0,0,1,9.75,3,3,0,0,0,0,12V51a3,3,0,0,0,3,3H49a3,3,0,0,0,3-3V12A3,3,0,0,0,51,9.75ZM41,2a3.66,3.66,0,0,1,2.44,1.19L48,9H31V2ZM29,2V20a1,1,0,0,1-1,1H24a1,1,0,0,1-1-1V2ZM8.56,3.19A3.66,3.66,0,0,1,11,2H21V9H4ZM50,51a1,1,0,0,1-1,1H3a1,1,0,0,1-1-1V12a1,1,0,0,1,1-1H21v9a3,3,0,0,0,3,3h4a3,3,0,0,0,3-3V11H49a1,1,0,0,1,1,1Z"/><path class="cls-1" d="M44,46H25a1,1,0,0,0,0,2H44a1,1,0,0,0,0-2Z"/><path class="cls-1" d="M40.71,30.29a1,1,0,0,0-1.41,0l-4,4a1,1,0,0,0,1.41,1.41L39,33.41V42a1,1,0,0,0,2,0V33.41l2.29,2.29a1,1,0,0,0,1.41-1.41Z"/><path class="cls-1" d="M25.71,35.71,28,33.41V42a1,1,0,0,0,2,0V33.41l2.29,2.29a1,1,0,0,0,1.41-1.41l-4-4a1,1,0,0,0-1.41,0l-4,4a1,1,0,0,0,1.41,1.41Z"/></svg>