<svg id="icons" xmlns="http://www.w3.org/2000/svg" viewBox="0 0 54 54.13"><defs><style>.cls-1{fill:#424242;}</style></defs><title>briefcase</title><path class="cls-1" d="M54,12.13a5,5,0,0,0-5-5H38.58l-1.71-3-.17-.31c-.91-1.65-2-3.71-4.7-3.71H22c-2.79,0-4,2.31-4.87,4l-1.71,3H5a5,5,0,0,0-5,5v13a6,6,0,0,0,1,3.21V49.13a5,5,0,0,0,5,5H48a5,5,0,0,0,5-5V28.34a6,6,0,0,0,1-3.21ZM18.91,5c.94-1.82,1.62-2.92,3.09-2.92H32c1.41,0,2,1,3,2.67l1.33,2.33H17.72ZM2,12.13a3,3,0,0,1,3-3H49a3,3,0,0,1,3,3v13a4.4,4.4,0,0,1-3.12,4L33,33.09v-2a3,3,0,0,0-3-3H24a3,3,0,0,0-3,3v2l-15.88-4a4.4,4.4,0,0,1-3.12-4Zm29,19v5a2,2,0,0,1-1.2,1.69,11.63,11.63,0,0,1-5.59,0A2,2,0,0,1,23,36.13v-5a1,1,0,0,1,1-1h6A1,1,0,0,1,31,31.13Zm17,21H6a3,3,0,0,1-3-3V30.34a5.67,5.67,0,0,0,1.64.72l16.12,4a1,1,0,0,0,.24,0v1a3.91,3.91,0,0,0,2.72,3.63,13.59,13.59,0,0,0,6.58,0A3.91,3.91,0,0,0,33,36.13v-1a1,1,0,0,0,.24,0l16.12-4A5.68,5.68,0,0,0,51,30.34V49.13A3,3,0,0,1,48,52.13Z"/></svg>