<svg id="icons" xmlns="http://www.w3.org/2000/svg" viewBox="0 0 54 54"><defs><style>.cls-1{fill:#424242;}</style></defs><title>cards</title><path class="cls-1" d="M49,0H13A5,5,0,0,0,8,5V20H5a5,5,0,0,0-5,5V49a5,5,0,0,0,5,5H41a5,5,0,0,0,5-5V34h3a5,5,0,0,0,5-5V5A5,5,0,0,0,49,0ZM10,10H52v4H10ZM44,49a3,3,0,0,1-3,3H5a3,3,0,0,1-3-3V25a3,3,0,0,1,3-3H41a3,3,0,0,1,3,3Zm8-20a3,3,0,0,1-3,3H46V25a5,5,0,0,0-5-5H10V16H52ZM10,8V5a3,3,0,0,1,3-3H49a3,3,0,0,1,3,3V8Z"/><path class="cls-1" d="M17,45H9a1,1,0,0,0,0,2h8a1,1,0,0,0,0-2Z"/><path class="cls-1" d="M34,45H22a1,1,0,0,0,0,2H34a1,1,0,0,0,0-2Z"/><path class="cls-1" d="M39,26H29a1,1,0,0,0-1,1v6a1,1,0,0,0,1,1H39a1,1,0,0,0,1-1V27A1,1,0,0,0,39,26Zm-1,6H30V28h8Z"/></svg>