<svg id="icons" xmlns="http://www.w3.org/2000/svg" viewBox="0 0 53.39 54"><defs><style>.cls-1{fill:#424242;}</style></defs><title>cart</title><path class="cls-1" d="M18.1,36a1,1,0,0,0,.23-.07A3.18,3.18,0,0,0,19,36H43a4.21,4.21,0,0,0,3.67-2.49l6.51-16.29A2.25,2.25,0,0,0,51,14H41c-.55,0,0,.45,0,1s-.55,1,0,1H51a.48.48,0,0,1,.37.11.48.48,0,0,1,0,.38L44.81,32.78A2.21,2.21,0,0,1,43,34H19a1.71,1.71,0,0,1-1.51-1.18l-4-16.12A.5.5,0,0,1,14,16h9c.55,0,0-.45,0-1s.55-1,0-1H14a2.49,2.49,0,0,0-2.49,3.18l4,16.12a3.4,3.4,0,0,0,.72,1.35,5.75,5.75,0,0,0-2.2,3,3.18,3.18,0,0,0,.38,2.85A4,4,0,0,0,18,42H47a1,1,0,0,0,0-2H18a2.41,2.41,0,0,1-1.93-.64,1.2,1.2,0,0,1-.13-1C16.69,36.24,18,36,18.1,36Z"/><path class="cls-1" d="M12.21,11.09l-2-6.58c-1-3.75-3.7-4.58-5-4.5H1A1,1,0,0,0,1,2H5.3c.22,0,2.22,0,3,3l2,6.62a1,1,0,0,0,1.91-.58Z"/><path class="cls-1" d="M18,44a5,5,0,1,0,5,5A5,5,0,0,0,18,44Zm0,8a3,3,0,1,1,3-3A3,3,0,0,1,18,52Z"/><path class="cls-1" d="M42,44a5,5,0,1,0,5,5A5,5,0,0,0,42,44Zm0,8a3,3,0,1,1,3-3A3,3,0,0,1,42,52Z"/><path class="cls-1" d="M32.09,5.19A9.91,9.91,0,1,0,42,15.1,9.92,9.92,0,0,0,32.09,5.19Zm0,18.06a8.16,8.16,0,1,1,8.16-8.16A8.17,8.17,0,0,1,32.09,23.25Z"/><path class="cls-1" d="M31.2,19.57l6.1-6.11A1,1,0,0,0,35.89,12l-4.79,4.79L28.3,14a1,1,0,0,0-1.41,1.41l4.31,4.11"/></svg>