<svg id="Слой_1" data-name="Слой 1" xmlns="http://www.w3.org/2000/svg" viewBox="0 0 54 52"><defs><style>.cls-1{fill:#424242;}</style></defs><title>coins</title><path class="cls-1" d="M54,5.5C54,1.89,46,0,38,0S22,1.89,22,5.5a2.47,2.47,0,0,0,0,.29A1,1,0,0,0,22,6V23.37A47.63,47.63,0,0,0,16,23C9,23,2,24.46.35,27.25A1,1,0,0,0,0,28V46.5c0,3.65,8.24,5.62,16,5.62s16-1.68,16-5.37V28a1,1,0,0,0-.35-.75c-1-1.69-3.93-2.88-7.65-3.57V20.3c2.88,1.78,8.46,2.7,14,2.7s11.12-.92,14-2.7v3.2c0,1.19-4.94,3.5-14,3.5-1.26,0-2.51,0-3.72-.14a1,1,0,0,0-.16,2c1.26.1,2.57.15,3.88.15,5.54,0,11.12-.92,14-2.7v3.2c0,1.19-4.94,3.5-14,3.5-1.2,0-2.39,0-3.53-.13a1,1,0,0,0-1.07.92,1,1,0,0,0,.92,1.07C35.51,35,36.75,35,38,35c5.54,0,11.12-.92,14-2.7v3.45c0,1.18-4.81,3.38-14,3.38-1.18,0-2.36,0-3.51-.13a1,1,0,0,0-.15,2c1.2.09,2.43.14,3.66.14,7.71,0,16-1.68,16-5.37V6a1,1,0,0,0,0-.21A2.48,2.48,0,0,0,54,5.5Zm-24,35c0,1.19-4.94,3.5-14,3.5S2,41.69,2,40.5V37.3C4.88,39.08,10.46,40,16,40s11.12-.92,14-2.7Zm0-6c0,1.19-4.94,3.5-14,3.5S2,35.69,2,34.5V31.3C4.88,33.08,10.46,34,16,34s11.12-.92,14-2.7ZM16,50.13c-8.68,0-14-2.35-14-3.62V43.3C4.88,45.08,10.46,46,16,46s11.12-.92,14-2.7v3.45C30,47.93,25.19,50.13,16,50.13ZM30,28.5c0,1.19-4.94,3.5-14,3.5S2,29.69,2,28.5,6.94,25,16,25,30,27.31,30,28.5Zm22-17c0,1.19-4.94,3.5-14,3.5s-14-2.31-14-3.5V8.3c2.88,1.78,8.46,2.7,14,2.7s11.12-.92,14-2.7ZM38,2c9.06,0,14,2.31,14,3.5S47.06,9,38,9,24,6.69,24,5.5,28.94,2,38,2Zm0,19c-9.06,0-14-2.31-14-3.5V14.3c2.88,1.78,8.46,2.7,14,2.7s11.12-.92,14-2.7v3.2C52,18.69,47.06,21,38,21Z"/></svg>