<svg id="icons" xmlns="http://www.w3.org/2000/svg" viewBox="0 0 54.19 52.34"><defs><style>.cls-1{fill:#424242;}</style></defs><title>feedback</title><path class="cls-1" d="M27.09,0C12.27,0,.12,10.13,0,22.59c-.07,7.7,2.89,13.24,9.61,17.94l.27.28c.2,2.84-1.55,6.06-5.23,9.56l-.26.25a1,1,0,0,0,.71,1.71h.08c7.7-.6,15.55-6.26,16.95-7.31l.61-.06c.89.12,3.44.36,4.36.36h0c14.94,0,27.09-10.21,27.09-22.66S42,0,27.09,0ZM27,43.19c-.86,0-3.63-.2-4.14-.29a1,1,0,0,0-.33,0l-1,.16a1,1,0,0,0-.46.2c-.07.06-6.43,5-13.18,6.59,2.93-3.34,4.25-6.53,3.92-9.5a1,1,0,0,0-.06-.24A2.9,2.9,0,0,0,10.93,39l-.11-.09C4.57,34.58,1.94,29.7,2,22.61,2.11,11.24,13.36,2,27.09,2s25.09,9.24,25.09,20.6S40.93,43.19,27,43.19Z"/><path class="cls-1" d="M15.59,19.33a4,4,0,1,0,4,4A4,4,0,0,0,15.59,19.33Zm0,6a2,2,0,1,1,2-2A2,2,0,0,1,15.59,25.33Z"/><path class="cls-1" d="M26.59,19.33a4,4,0,1,0,4,4A4,4,0,0,0,26.59,19.33Zm0,6a2,2,0,1,1,2-2A2,2,0,0,1,26.59,25.33Z"/><path class="cls-1" d="M37.59,19.33a4,4,0,1,0,4,4A4,4,0,0,0,37.59,19.33Zm0,6a2,2,0,1,1,2-2A2,2,0,0,1,37.59,25.33Z"/></svg>