<svg id="icons" xmlns="http://www.w3.org/2000/svg" viewBox="0 0 54 54"><defs><style>.cls-1{fill:#424242;}</style></defs><title>globe</title><path class="cls-1" d="M27,0A27,27,0,1,0,54,27,27,27,0,0,0,27,0ZM46.9,42.1a24.79,24.79,0,0,0-6.83-3.43A47.79,47.79,0,0,0,41.43,28H52A24.86,24.86,0,0,1,46.9,42.1ZM2,28H12.57a47.79,47.79,0,0,0,1.36,10.68A24.79,24.79,0,0,0,7.1,42.1,24.86,24.86,0,0,1,2,28ZM7,12a24.71,24.71,0,0,0,6.86,3.46A47.85,47.85,0,0,0,12.57,26H2A24.86,24.86,0,0,1,7,12Zm21,5.45A41.43,41.43,0,0,0,38.13,16a45.05,45.05,0,0,1,1.3,10H28Zm0-2V2.09c4,.68,7.55,5.36,9.59,12A39.24,39.24,0,0,1,28,15.41ZM26,2.09V15.41a39.15,39.15,0,0,1-9.59-1.34C18.46,7.44,22,2.77,26,2.09Zm0,15.32V26H14.57a45.05,45.05,0,0,1,1.3-10A41.43,41.43,0,0,0,26,17.41ZM14.57,28H26v8.69a41.47,41.47,0,0,0-10.11,1.39A45,45,0,0,1,14.57,28ZM26,38.69V51.91c-4-.67-7.51-5.31-9.56-11.9A39.31,39.31,0,0,1,26,38.69Zm2,13.22V38.69A39.18,39.18,0,0,1,37.56,40C35.51,46.6,32,51.24,28,51.91Zm0-15.22V28H39.43a45,45,0,0,1-1.33,10.07A41.47,41.47,0,0,0,28,36.69ZM41.43,26A47.85,47.85,0,0,0,40.1,15.41,24.71,24.71,0,0,0,47,12a24.86,24.86,0,0,1,5,14Zm4.25-15.59a23.12,23.12,0,0,1-6.12,3.06c-1.38-4.55-3.45-8.23-6-10.58A25,25,0,0,1,45.68,10.41ZM20.4,2.89c-2.51,2.36-4.57,6-6,10.57a23.47,23.47,0,0,1-6.12-3.05A25,25,0,0,1,20.4,2.89Zm-12,40.76a23.27,23.27,0,0,1,6.1-3A24.06,24.06,0,0,0,20.4,51.11,25,25,0,0,1,8.37,43.65ZM33.6,51.11a24,24,0,0,0,5.93-10.48,23.63,23.63,0,0,1,6.1,3A25,25,0,0,1,33.6,51.11Z"/></svg>