<svg id="icons" xmlns="http://www.w3.org/2000/svg" viewBox="0 0 53.83 52.86"><defs><style>.cls-1{fill:#424242;}</style></defs><title>group</title><path class="cls-1" d="M51.46,35.86a2.43,2.43,0,0,0,1.81-.53,2,2,0,0,0,.56-1.47,9.33,9.33,0,0,0-.66-3.09c-.6-2-3.7-5.74-7.32-7.32l-1.67-.83A10.13,10.13,0,0,1,44,21.11a7.47,7.47,0,0,0,1.15-1.49l.39-.62a13.6,13.6,0,0,0,1.18-2.14,2.34,2.34,0,0,0,.93-.92c.74-1.35,1.3-3.76.92-4.84a1.59,1.59,0,0,0-.72-.86c-.07-4.21-2-7.45-5.21-8.72A23.39,23.39,0,0,0,39.48.41L38.93.25A4.75,4.75,0,0,0,37.83,0a1,1,0,0,0-.31,0,3,3,0,0,0-2.09,1.34,2.63,2.63,0,0,0-2,2,1,1,0,0,0-.05.32,9,9,0,0,0-1.86,3.67,1,1,0,0,0,.72,1.2,1,1,0,0,0,1.22-.75,6.82,6.82,0,0,1,2-3.52,1.18,1.18,0,0,0,.3-1.15c.08,0,.17-.25.25-.25h0c.53,0,1-.12,1-.63,0-.19.36-.13.64-.21a2.88,2.88,0,0,1,.54.14l.63.19a21.55,21.55,0,0,1,2.91,1c2.66,1.06,4.11,3.82,4,7.59a1,1,0,0,0,.31.73,1.06,1.06,0,0,0,.55.29,7.57,7.57,0,0,1-.8,3c0,.06-.1.11-.08.11a1,1,0,0,0-.8.64,10.66,10.66,0,0,1-1.16,2.19l-.41.65a4.77,4.77,0,0,1-1.06,1.3,1,1,0,0,0-.39.8,12,12,0,0,0,.35,2.88,1,1,0,0,0,.53.63L45,25.25c3.15,1.37,5.88,4.72,6.29,6.09A9.93,9.93,0,0,1,52,33.85v0a6.88,6.88,0,0,1-1,0l-.74,0H36a1,1,0,0,0,0,2Z"/><path class="cls-1" d="M18,35.86a1,1,0,0,0,0-2H3.3l-.66,0H2v-.06a10.39,10.39,0,0,1,.4-2.52c.41-1.59,4-4.86,7.15-6a4.5,4.5,0,0,0,2.1-1.46,1,1,0,0,0,.15-.33,14.58,14.58,0,0,0,.32-2.72,1,1,0,0,0-.43-.85,4.31,4.31,0,0,1-1.17-1.35l-.38-.61A10.32,10.32,0,0,1,9,15.74a.9.9,0,0,0-.83-.65A.29.29,0,0,1,8,15a7.61,7.61,0,0,1-.8-3,1,1,0,0,0,.95-1c-.11-2.88.7-5.16,2.33-6.58a1,1,0,0,0,.3-1,.91.91,0,0,1,.25-.08l.15,0a1,1,0,0,0,1-.84,1.21,1.21,0,0,1,.42-.32l.42.07a5.61,5.61,0,0,1,.84.18,20.88,20.88,0,0,1,2.87,1,5.93,5.93,0,0,1,3.45,3.88,1,1,0,0,0,1.9-.61,8,8,0,0,0-4.58-5.11A22.67,22.67,0,0,0,14.44.41,7.39,7.39,0,0,0,13.35.18l-.62-.1a1,1,0,0,0-.37,0,3.16,3.16,0,0,0-1.81,1.22,2.76,2.76,0,0,0-2.1,2,1.06,1.06,0,0,0-.05.33,9.91,9.91,0,0,0-2.22,6.53,1.59,1.59,0,0,0-.81.91c-.38,1.08.18,3.48.92,4.83a2.3,2.3,0,0,0,1,1A13.39,13.39,0,0,0,8.46,19l.36.57a6.84,6.84,0,0,0,1.28,1.6,12.55,12.55,0,0,1-.19,1.58,3.1,3.1,0,0,1-1.06.63c-3.61,1.36-7.77,5-8.38,7.4A11.7,11.7,0,0,0,0,33.86a2,2,0,0,0,.56,1.51,2.18,2.18,0,0,0,1.63.49Z"/><path class="cls-1" d="M45.09,52.86c1.82,0,2.74-.74,2.74-2.28A11.67,11.67,0,0,0,47,46.73c-.87-2.86-8.48-7.53-12.1-9.11l-2.24-1.11a13.18,13.18,0,0,1-.25-2.18,9,9,0,0,0,1.49-1.92l.49-.78a16.74,16.74,0,0,0,1.51-2.76,2.67,2.67,0,0,0,1.15-1.11c.91-1.66,1.6-4.61,1.14-5.91a1.76,1.76,0,0,0-.93-1c0-5.3-2.42-9.37-6.44-11a29.27,29.27,0,0,0-3.95-1.38A3.57,3.57,0,0,1,25.79,8a1,1,0,0,0-1.18-.82c-.79.16-1.47,1.19-1.74,1.84a3.13,3.13,0,0,0-.19.67A3.51,3.51,0,0,0,19.59,12a1.06,1.06,0,0,0-.06.44,12.31,12.31,0,0,0-2.82,8.34,1.75,1.75,0,0,0-1,1.07c-.46,1.3.23,4.24,1.14,5.91a2.63,2.63,0,0,0,1.25,1.14,16.4,16.4,0,0,0,1.49,2.74l.46.74a8.25,8.25,0,0,0,1.67,2,15.82,15.82,0,0,1-.27,2.25,4.07,4.07,0,0,1-1.5.91c-3.34,1.25-12.12,5.83-13,9.19-.6,2.31-.84,3.44-.85,3.48a.93.93,0,0,0,0,.2c0,2.41,2.3,2.4,3.06,2.4Zm.72-2a1.76,1.76,0,0,1-.72.08l-.64,0-.81,0H9.13c-.81,0-1-.1-1-.13a.46.46,0,0,1,0-.19c.07-.34.32-1.43.8-3.28s7.25-6.13,11.75-7.82a5.42,5.42,0,0,0,2.54-1.76,1,1,0,0,0,.15-.33,18.25,18.25,0,0,0,.4-3.4,1,1,0,0,0-.43-.85,5.69,5.69,0,0,1-1.56-1.79l-.48-.77a13.29,13.29,0,0,1-1.48-2.84,1,1,0,0,0-.89-.66.6.6,0,0,1-.3-.27,9.1,9.1,0,0,1-1-4.18h.16a1,1,0,0,0,.74-.29,1,1,0,0,0,.29-.74c-.17-4.72,1.56-7.25,3-8.54a1,1,0,0,0,.28-1.1,4,4,0,0,1,1.69-.34h0a1,1,0,0,0,.92-.43,1,1,0,0,0,0-1.08.84.84,0,0,1,.11-.41,5,5,0,0,0,1.6.75,27.4,27.4,0,0,1,3.71,1.3c3.49,1.38,5.38,5,5.2,9.87a1,1,0,0,0,1,1h.1a9.1,9.1,0,0,1-1,4.19.65.65,0,0,1-.29.28,1,1,0,0,0-.8.64,13.67,13.67,0,0,1-1.49,2.82l-.51.82a6.26,6.26,0,0,1-1.41,1.72,1,1,0,0,0-.39.8,14.91,14.91,0,0,0,.43,3.58,1,1,0,0,0,.52.63l2.7,1.33c4.47,2,10.55,6.3,11,7.88a10.18,10.18,0,0,1,.74,3.26A2.26,2.26,0,0,1,45.81,50.81Z"/></svg>