<svg id="icons" xmlns="http://www.w3.org/2000/svg" viewBox="0 0 54 53"><defs><style>.cls-1{fill:#424242;}</style></defs><title>like</title><path class="cls-1" d="M52,29a5,5,0,0,0-3-9H37.31A86.71,86.71,0,0,0,39,6c0-5-2.72-6-5-6-1.49,0-4,.65-4,5,0,6-8.78,18.57-10.51,21H17.68a2.71,2.71,0,0,0-.58-1.08A2.81,2.81,0,0,0,15,24H3a3,3,0,0,0-3,3V50a3,3,0,0,0,3,3h9a3.31,3.31,0,0,0,3.21-2.88L17.67,28H20a1,1,0,0,0,.81-.41C21.26,27,32,12.24,32,5c0-2.13.58-3,2-3s3,.48,3,4c0,3.07-1,11.93-1.95,14.68A1,1,0,0,0,36,22H49a3,3,0,0,1,0,6H47a1,1,0,0,0,0,2h2a3,3,0,0,1,0,6H48a1,1,0,0,0-.33.07A4.9,4.9,0,0,0,47,36H46a1,1,0,0,0,0,2h1a3,3,0,0,1,0,6H46a1,1,0,0,0-.31.06,1,1,0,0,0-.31-.06H44.5a1,1,0,0,0,0,2A2.5,2.5,0,0,1,47,48.5,2.79,2.79,0,0,1,44,51H29.5c-3.69,0-7.21-.47-8.05-.89l-2-1a1,1,0,0,0-.89,1.79l2,1C22,52.61,26.23,53,29.5,53H44a4.78,4.78,0,0,0,5-4.5,4.46,4.46,0,0,0-.87-2.64,5,5,0,0,0,2.58-8.18A5,5,0,0,0,52,29ZM13.23,49.9A1.3,1.3,0,0,1,12,51H3a1,1,0,0,1-1-1V27a1,1,0,0,1,1-1H15a.76.76,0,0,1,.79.88Z"/></svg>