<svg id="icons" xmlns="http://www.w3.org/2000/svg" viewBox="0 0 46 53.83"><defs><style>.cls-1{fill:#424242;}</style></defs><title>lock</title><path class="cls-1" d="M23,29a5,5,0,0,0-3,9v5a3,3,0,0,0,6,0V38a5,5,0,0,0-3-9Zm1.5,7.58-.5.29V43a1,1,0,0,1-2,0V36.87l-.5-.29A3,3,0,0,1,20,34a3,3,0,0,1,6,0A3,3,0,0,1,24.5,36.58Z"/><path class="cls-1" d="M41,21H39V15.5A15.77,15.77,0,0,0,23,0,15.77,15.77,0,0,0,7,15.5V21H5a5,5,0,0,0-5,5V49a5,5,0,0,0,5,5H41a5,5,0,0,0,5-5V26A5,5,0,0,0,41,21ZM9,15.5A13.77,13.77,0,0,1,23,2,13.77,13.77,0,0,1,37,15.5V21H9ZM44,49a3,3,0,0,1-3,3H5a3,3,0,0,1-3-3V26a3,3,0,0,1,3-3H41a3,3,0,0,1,3,3Z"/></svg>