<svg id="icons" xmlns="http://www.w3.org/2000/svg" viewBox="0 0 52 53.91"><defs><style>.cls-1{fill:#424242;}</style></defs><title>map</title><path class="cls-1" d="M25.25,41.67A1,1,0,0,0,26,42a1,1,0,0,0,.75-.34c.34-.39,8.48-9.7,13-20a15,15,0,0,0,1.49-6.5,15.26,15.26,0,0,0-30.51,0,14.87,14.87,0,0,0,1.45,6.47C16.65,32,24.9,41.27,25.25,41.67ZM25.95,2A13.23,13.23,0,0,1,39.2,15.17a13,13,0,0,1-1.31,5.67C34.3,29.08,28.12,36.89,26,39.46c-2.15-2.56-8.42-10.38-12-18.65a12.93,12.93,0,0,1-1.27-5.64A13.23,13.23,0,0,1,25.95,2Z"/><path class="cls-1" d="M25.95,22.23A7.24,7.24,0,1,0,18.71,15,7.25,7.25,0,0,0,25.95,22.23Zm0-12.47A5.24,5.24,0,1,1,20.71,15,5.24,5.24,0,0,1,25.95,9.76Z"/><path class="cls-1" d="M52,52.75l-6-23a1,1,0,0,0-.6-.68l-5-2-.74,1.86,4.53,1.81,5.32,20.38-10-5a1,1,0,0,0-.87,0L26,51.9,13.42,46.09a1,1,0,0,0-.87,0l-10,5L7.84,30.74l4.53-1.81-.74-1.86-5,2a1,1,0,0,0-.6.68l-6,23a1,1,0,0,0,1.42,1.15L13,48.11l12.56,5.8a1,1,0,0,0,.84,0L39,48.11l11.57,5.79A1,1,0,0,0,52,52.75Z"/></svg>