<svg id="icons" xmlns="http://www.w3.org/2000/svg" viewBox="0 0 53.62 52.9"><defs><style>.cls-1{fill:#424242;}</style></defs><title>phone</title><path class="cls-1" d="M53.59,43.77a3.93,3.93,0,0,0-1.92-2.6l-11.83-8.1a3.64,3.64,0,0,0-2.06-.64,3.53,3.53,0,0,0-2.87,1.45l-3.07,4.35a2.08,2.08,0,0,0-.31,1.15c-1.17.17-4.58.07-10.17-5.52-5.4-5.39-8-9.36-7.63-11.81a1,1,0,0,0,.16-.13,2.12,2.12,0,0,0,.75-.34l4.24-3.21a3.59,3.59,0,0,0,.66-5L11.07,1.86C9.44-.36,7.52-.6,5.46,1.17A25.64,25.64,0,0,0,1.1,6.61,4.47,4.47,0,0,0,.49,9.28,24.27,24.27,0,0,0,.63,19.74C2.18,27,6.36,34,13.05,40.45,24.25,51.28,34.09,52.9,39,52.9h0A15.85,15.85,0,0,0,44.73,52a4.49,4.49,0,0,0,2.52-.7,25.27,25.27,0,0,0,5.29-4.54A3.84,3.84,0,0,0,53.59,43.77ZM51,45.5a23.49,23.49,0,0,1-4.75,4.07,3.34,3.34,0,0,1-.56.26c-1.35-.59-3.73-1.83-4.44-2.72a1,1,0,1,0-1.56,1.25,10.58,10.58,0,0,0,2.93,2.18A17.28,17.28,0,0,1,39,50.9h0c-4.56,0-13.82-1.55-24.51-11.89C-.8,24.25,2.09,11,2.47,9.59a1,1,0,0,0,0-.4,2.46,2.46,0,0,1,.35-1.61A23.9,23.9,0,0,1,6.76,2.69,2.3,2.3,0,0,1,8.09,2c.15,0,.61,0,1.37,1L17.93,14.6a1.58,1.58,0,0,1-.25,2.18L13.49,20l-.07,0a17.34,17.34,0,0,1-3.1-2.86,1,1,0,1,0-1.67,1.09,16.83,16.83,0,0,0,3.21,3.09c-.8,3.26,1.73,7.61,8.11,14,5.08,5.08,8.78,6.14,11,6.14A4.44,4.44,0,0,0,33,41a1,1,0,0,0,.5-.72,4.54,4.54,0,0,0,0-.55c0-.12,0-.33,0-.44l3-4.25a1.63,1.63,0,0,1,2.17-.32l11.83,8.09c.65.45,1,.86,1.07,1.24A2.07,2.07,0,0,1,51,45.5Z"/><path class="cls-1" d="M25.67,11.52a24.41,24.41,0,0,1,16.19,16.1,1,1,0,0,0,1,.7,1,1,0,0,0,.3,0A1,1,0,0,0,43.77,27,26.4,26.4,0,0,0,26.25,9.61a1,1,0,1,0-.58,1.91Z"/><path class="cls-1" d="M27,4.11A30,30,0,0,1,49.63,27.92a1,1,0,0,0,1,.82l.18,0a1,1,0,0,0,.81-1.16A32,32,0,0,0,27.5,2.16,1,1,0,0,0,27,4.11Z"/></svg>