<svg id="icons" xmlns="http://www.w3.org/2000/svg" viewBox="0 0 54 54"><defs><style>.cls-1{fill:#424242;}</style></defs><title>shop</title><path class="cls-1" d="M54,16V7a7,7,0,0,0-7-7H7A7,7,0,0,0,0,7v9a7,7,0,0,0,2.1,5A5,5,0,0,0,2,22V49a5,5,0,0,0,5,5H47a5,5,0,0,0,5-5V22a4.75,4.75,0,0,0-.11-1A7,7,0,0,0,54,16ZM47,2a5,5,0,0,1,5,5v9a5,5,0,0,1-5,5H46a5,5,0,0,1-5-5V2ZM39,2V16a5,5,0,0,1-5,5H33a5,5,0,0,1-5-5V2ZM26,2V16a5,5,0,0,1-5,5H20a5,5,0,0,1-5-5V2ZM2,16V7A5,5,0,0,1,7,2h6V16a5,5,0,0,1-5,5H7A5,5,0,0,1,2,16Zm8,36V30H21V52Zm40-3a3,3,0,0,1-3,3H23V29a1,1,0,0,0-1-1H9a1,1,0,0,0-1,1V52H7a3,3,0,0,1-3-3V22.31A7,7,0,0,0,7,23H8a7,7,0,0,0,6-3.41A7,7,0,0,0,20,23h1a7,7,0,0,0,6-3.41A7,7,0,0,0,33,23h1a7,7,0,0,0,6-3.41A7,7,0,0,0,46,23h1a7,7,0,0,0,3-.69Z"/><path class="cls-1" d="M45,28H29a1,1,0,0,0-1,1V44a1,1,0,0,0,1,1H45a1,1,0,0,0,1-1V29A1,1,0,0,0,45,28ZM44,43H30V30H44Z"/><path class="cls-1" d="M15,40H13a1,1,0,0,0,0,2h2a1,1,0,0,0,0-2Z"/></svg>