<svg id="icons" xmlns="http://www.w3.org/2000/svg" viewBox="0 0 49.66 54.04"><defs><style>.cls-1{fill:#424242;}</style></defs><title>support</title><path class="cls-1" d="M48.67,46.91c-.66-2.16-4.21-4-7.64-5.73-.9-.46-1.78-.91-2.53-1.33a1,1,0,1,0-1,1.74c.78.44,1.67.89,2.6,1.37,2.63,1.34,6.22,3.18,6.63,4.53.85,2.81.9,3.21.9,4a.71.71,0,0,1-.08.43,4.29,4.29,0,0,1-1.79.14l-1,0H4.11c-.74,0-1.76,0-2-.21a.63.63,0,0,1-.1-.38c.08-.37.38-1.7,1-4,.45-1.75,4.9-4.28,13.17-7.5a6.84,6.84,0,0,0,3-2,1,1,0,1,0-1.6-1.2,5,5,0,0,1-2.09,1.36C8.79,40.67,1.86,43.75,1,46.95c-.71,2.76-1,4.12-1,4.17a1,1,0,0,0,0,.21,2.55,2.55,0,0,0,.71,1.9c.84.83,2.1.8,3.44.78H44.83l.89,0,.85,0a3.27,3.27,0,0,0,2.4-.72,2.48,2.48,0,0,0,.69-1.87C49.66,50.41,49.56,49.83,48.67,46.91Z"/><path class="cls-1" d="M8.83,30h3a1.89,1.89,0,0,0,1.4-.53,3.08,3.08,0,0,0,.6-2.32v-.1a2.68,2.68,0,0,0,.5.27,19,19,0,0,0,1.8,3.33l.55.88a8.81,8.81,0,0,0,2.42,2.76,10.34,10.34,0,0,0,5.68,2.24,3.8,3.8,0,0,0,.52,0,8.71,8.71,0,0,0,5.47-2.33A9.45,9.45,0,0,0,33,31.58l.59-.94a19.7,19.7,0,0,0,1.82-3.35,2.63,2.63,0,0,0,.41-.23v.09a3.08,3.08,0,0,0,.6,2.32,1.7,1.7,0,0,0,.39.28c-.07,2.35-.65,6.92-2.86,7.7a3,3,0,0,0-2.4-.46L26.7,38.16A3,3,0,1,0,28.09,44L33,42.84a3,3,0,0,0,2.22-3.61l0-.09c3.09-1.59,3.6-6.83,3.67-9.13h2a4.93,4.93,0,0,0,4-2.46,11,11,0,0,0,0-9.1,4.93,4.93,0,0,0-4-2.44h0a16.25,16.25,0,0,0-16-16,16.25,16.25,0,0,0-16,16h0a4.93,4.93,0,0,0-4,2.46,11,11,0,0,0,0,9.1A4.93,4.93,0,0,0,8.83,30ZM32.49,40.89l-4.86,1.16a1,1,0,0,1-1.2-.74,1,1,0,0,1,.74-1.2L32,38.95l.23,0a1,1,0,0,1,.23,2ZM35,25.06a.92.92,0,0,1-.5.44,1,1,0,0,0-.8.64,16.79,16.79,0,0,1-1.81,3.43l-.61,1a7.59,7.59,0,0,1-1.76,2.13c-2.58,2.14-4.41,1.89-4.47,1.88l-.19,0a8.45,8.45,0,0,1-4.55-1.83,7,7,0,0,1-1.92-2.21l-.58-.92A16.09,16.09,0,0,1,16,26.13a1.08,1.08,0,0,0-.91-.66.88.88,0,0,1-.5-.43,1,1,0,0,0-.78-.5V21h0a.87.87,0,0,0,1-.85,18.55,18.55,0,0,1,1.43-6.26C18,9.8,20.91,7.73,25,7.73c10,0,10,11.71,10,12.21s.78,1,.78,1v3.62A1,1,0,0,0,35,25.06Zm8-5.77a9,9,0,0,1,0,7.4A2.93,2.93,0,0,1,40.83,28h-3a6.87,6.87,0,0,1,0-.84V18.85a6.74,6.74,0,0,1,0-.85h3A2.93,2.93,0,0,1,43,19.29ZM24.83,2a14.24,14.24,0,0,1,14,14h-1a2,2,0,0,0-1.17.34c-.82-4.22-3.4-10.67-11.51-10.67s-10.89,6.7-11.84,11l-.09-.11a1.89,1.89,0,0,0-1.4-.53h-1A14.24,14.24,0,0,1,24.83,2ZM6.62,19.32A2.93,2.93,0,0,1,8.83,18h3a6.85,6.85,0,0,1,0,.84v8.31a6.82,6.82,0,0,1,0,.84h-3a2.93,2.93,0,0,1-2.2-1.29A9,9,0,0,1,6.62,19.32Z"/></svg>