<svg id="OBJECTS" xmlns="http://www.w3.org/2000/svg" viewBox="0 0 2052.95 43.45"><defs><style>.cls-1{fill:#53838e;}</style></defs><title>footer_background2</title><path class="cls-1" d="M974.09,43.48c-.33-2.2-8.81-23.65-9.13-25.85-25.86-.83-51.75-.81-77.59-.54-28.07.29-56.07,6.69-84.21.77l.31-.22c.1-4.48-9,.26-13.43.3-6.53.05-13.07,0-20.36,0l2.4,7.89c-10.59-2.55-20.94-5.22-31.38-7.43-2.77-.59-5.85.44-8.78.39-8.89-.16-17.8-.14-26.65-.81-13.72-1-27.44-2.3-41.08-4.09C658,13.09,652,10.77,644,8.64l-12.09,6.78.31-2.45-51-5.08.39,0c-5.64,0-11.33.59-16.9,0C540.36,5.44,516,2.32,491.63.17c-4.89-.43-10.07,2.37-15,2.32H416.72l.11.8c-15.54.86-31.09,2.57-46.62,2.41C342.78,5.42,315.35,3,287.94,3.28,233.63,3.82,179.32,6.35,125,6.55c-31.54.11-63.07-3-94.63-4C21.81,2.3,7.46,1.71,0,12V43.58Z"/><path class="cls-1" d="M962.93,43.48V17.62c12.16,0,23,1.15,35.11,1.22,52.87.29,105.76,1.67,158.6.65,62-1.2,124-5,186.05-6.63,29.76-.8,59.57.74,89.36,1,9.9.09,19.82-.89,29.71-.67,36.23.81,72.45,2.35,108.68,2.69,14.61.14,29.25-3.15,43.86-3,21.7.23,43.45,1.45,65.05,3.53,25.5,2.45,50.87,6.25,66.91,8.27L1842,16l13.52,9.36,9.66-6.34c57.11-2.08,130.19-4.08,187.77,3.82V43.58Z"/></svg>