<svg id="OBJECTS" xmlns="http://www.w3.org/2000/svg" viewBox="0 0 2052.95 43.45"><defs><style>.cls-1{fill:#fff;}</style></defs><title>footer_background</title><path class="cls-1" d="M0-.17V31.46c7.49,10.25,21.84,9.66,30.41,9.4,31.56-1,63.09-4.1,94.63-4,54.31.2,108.62,2.72,162.93,3.27,27.41.27,54.84-2.14,82.26-2.42,15.53-.16,31.08,1.55,46.62,2.41l-.11.8h59.91c4.93-.05,10.11,2.75,15,2.32C516,41.09,540.36,38,564.75,35.48c5.58-.57,11.27,0,16.9,0l-.39,0,51-5.08L631.92,28,644,34.77c7.94-2.13,13.95-4.45,20.16-5.26,13.64-1.79,27.36-3,41.08-4.09,8.85-.67,17.76-.66,26.65-.81,2.93-.05,6,1,8.78.39,10.44-2.21,20.78-4.88,31.38-7.43l-2.4,7.89c7.29,0,13.82,0,20.36,0,4.48,0,13.54,4.77,13.43.3l-.31-.22c28.14-5.92,56.14.48,84.21.77,25.85.27,51.73.29,77.59-.54.33-2.2,8.81-23.65,9.13-25.85ZM356.8,33.67l-.68-1-2.76,2.06.62.87Zm-9.44,2.27,0,.51.58-.22Z"/><path class="cls-1" d="M962.93-.07V25.79c12.16,0,23-1.15,35.11-1.22,52.87-.29,105.76-1.67,158.6-.65,62,1.2,124,5,186.05,6.63,29.76.8,59.57-.74,89.36-1,9.9-.09,19.82.89,29.71.67,36.23-.81,72.45-2.35,108.68-2.69,14.61-.14,29.25,3.15,43.86,3,21.7-.23,43.45-1.45,65.05-3.53,25.5-2.45,50.87-6.25,66.91-8.27L1842,27.38,1855.49,18l9.66,6.34c57.11,2.08,130.19,4.08,187.77-3.82V-.17Z"/></svg>