<svg id="OBJECTS" xmlns="http://www.w3.org/2000/svg" viewBox="0 0 2033.55 15.22"><defs><style>.cls-1{fill:#fff;}</style></defs><title>middle_background1</title><path class="cls-1" d="M1702.35,32.81l.39-26.22c13.88,2.76,27.72,5.75,41.66,8.15,4.81.83,9.87.36,14.81.2,6.94-.23,13.86-.71,20.79-1.12,4.36-.26,8.72-.82,13.08-.83,8.34,0,16.67.34,25,.42,15.53.16,31.07.73,46.57.18,11.1-.4,22.13-2.44,33.21-3.6,8.57-.9,17.16-1.69,25.76-2.3a48.07,48.07,0,0,1,10.7.25,167.59,167.59,0,0,0,38.18,1.74c8.13-.59,16.35.22,24.51-.15,7.12-.32,14.2-1.47,21.3-2.12,4.91-.44,9.84-.69,14.77-.95,4.21-.22,8.42-.34,12.64-.5l.06-.84c-.87-.19-.6,27.68-.6,27.68Z"/><path class="cls-1" d="M-.7,57.12-.31.9C13.56,3.66,37.4,6.65,51.34,9.05c4.81.83,9.87.36,14.81.2C73.08,9,80,8.54,86.94,8.13c4.36-.26,8.72-.82,13.08-.83,8.34,0,16.67.34,25,.42,15.53.16,31.07.73,46.57.18,11.1-.4,22.13-2.44,33.21-3.6C213.39,3.4,222,2.61,230.58,2a48.07,48.07,0,0,1,10.7.25A167.59,167.59,0,0,0,279.46,4c8.13-.59,16.35.22,24.51-.15,7.12-.32,14.2-1.47,21.3-2.12,4.91-.44,9.84-.69,14.77-.95A121.67,121.67,0,0,1,352.71.61c0,.12,0,.38,0,.1.31,3.13.15,56.42-.57,56.41Z"/><path class="cls-1" d="M1703.35,33.39V14.9c-.73.75.32-7.82-.61-8.18-9.15.35-19.59,1.08-28.73,1-10.91-.11-21.79-2.6-32.74-.3l.12.09c-1.74,0-3.48-.1-5.22-.12-2.54,0-5.08,0-7.91,0l.93-3.07c-4.12,1-8.14,2-12.2,2.89-1.08.23-2.27-.17-3.41-.15-3.45.06-6.92.05-10.36.32-5.33.41-10.67.89-16,1.59a67.25,67.25,0,0,0-7.84,2l-4.7-2.63.12,1-19.82,2h.15a61.08,61.08,0,0,0-6.57,0c-9.48,1-18.93,2.18-28.42,3-1.9.17-3.91-.92-5.83-.9H1491l0-.31c-6-.34-12.09-1-18.12-.94-10.66.11-21.32,1-32,.94-21.11-.21-42.22-1.19-63.34-1.27-12.26,0-24.52,1.18-36.79,1.55-3.29.1-9.92-3.5-9.92-3.5s0,.69,0,.75c-.48.49,0,21.45,0,21.45Z"/><path class="cls-1" d="M1031.66,31.94c-.11.41-21.91-25.92-22-25.51,2.37,0,21.67-4,27.22-1.08,11.18,3.38,22.67,4,34.27,4,7.48,0,15,.88,22.43,1,6.73.09,13.46-.46,20.19-.5q12.43-.08,24.85.24c8.59.24,17.18.71,25.77,1.1,4,.18,7.94.6,11.91.61,9.12,0,18.24-.19,27.36-.25,4.93,0,9.87.21,14.79,0,17.33-.76,34.65-2.2,52-2.37,17.69-.17,35.51-.92,53.21-.51a28.2,28.2,0,0,1,7.29,1.08s3,1.5,3.37,1.77-2.38,20.19-2.42,19.9Z"/><path class="cls-1" d="M692.56.49c3.07,4.86,7.53,3.32,11.14,3.43,14.46.42,28.94,0,43.4.21a230,230,0,0,1,23.66,1.66c11.64,1.41,22.82-.15,34.39-3.43,1.53,3.5,5,1.48,7.83,1.18,8.09-.85,16,1.36,24,1.37,10.92,0,21.83,0,32.75,0,15.22,0,30.44,0,45.65.07q19.71.12,39.41.47c15.44.28,30.88,1.07,46.31.88,7.94-.1,10.85-2.14,18.75-3.35,2.67-.41,13.24,4.75,15.64,3.43l-3,35.23-339.9,5.33Z"/><path class="cls-1" d="M352.66.61C359,.85,360.19,2.93,363.8,3c14.46.42,28.94,0,43.4.21a230,230,0,0,1,23.66,1.66c11.64,1.41,22.82-.15,34.39-3.43,1.53,3.5,5,1.48,7.83,1.18C481.17,1.81,489,4,497,4c10.92,0,21.83,0,32.75,0,15.22,0,30.44,0,45.65.07q19.71.12,39.41.47c15.44.28,30.88,1.07,46.31.88,7.94-.1,15.88-1.73,23.78-2.95,2.67-.41,5.2-.66,7.61-2V67.64l-340,1.23Z"/></svg>