<svg id="OBJECTS" xmlns="http://www.w3.org/2000/svg" viewBox="0 0 2052.95 43.45"><defs><style>.cls-1{fill:#fff;}</style></defs><title>middle_background1</title><path class="cls-1" d="M1078.81-.07c.33,2.2,8.81,23.65,9.13,25.85,25.86.83,51.75.81,77.59.54,28.07-.29,56.07-6.69,84.21-.77l-.31.22c-.1,4.48,9-.26,13.43-.3,6.53-.05,13.07,0,20.36,0l-2.4-7.89c10.59,2.55,20.94,5.22,31.38,7.43,2.77.59,5.85-.44,8.78-.39,8.89.16,17.8.14,26.65.81,13.72,1,27.44,2.3,41.08,4.09,6.21.82,12.22,3.13,20.16,5.26L1421,28l-.31,2.45,51,5.08-.39,0c5.64,0,11.33-.59,16.9,0,24.38,2.49,48.71,5.61,73.12,7.76,4.89.43,10.07-2.37,15-2.32h59.91l-.11-.8c15.54-.86,31.09-2.57,46.62-2.41,27.43.28,54.85,2.69,82.26,2.42,54.32-.54,108.62-3.07,162.93-3.27,31.54-.11,63.07,3,94.63,4,8.57.26,22.91.85,30.41-9.4V-.17Zm620.11,35.67.62-.87-2.76-2.06-.68,1Zm6.07.62.58.22,0-.51Z"/><path class="cls-1" d="M1090-.07V25.79c-12.16,0-23-1.15-35.11-1.22-52.87-.29-105.76-1.67-158.6-.65-62,1.2-124,5-186.05,6.63-29.76.8-59.57-.74-89.36-1-9.9-.09-19.82.89-29.71.67-36.23-.81-72.45-2.35-108.68-2.69-14.61-.14-29.25,3.15-43.86,3-21.7-.23-43.45-1.45-65.05-3.53-25.5-2.45-50.87-6.25-66.91-8.27l-95.71,8.67L197.41,18l-9.66,6.34C130.63,26.45,57.56,28.45,0,20.54V-.17Z"/></svg>