<svg id="Layer_1" data-name="Layer 1" xmlns="http://www.w3.org/2000/svg" viewBox="0 0 579.37 249.97"><defs><style>.cls-1,.cls-10,.cls-14,.cls-15,.cls-16,.cls-17,.cls-18,.cls-21,.cls-22,.cls-24,.cls-25,.cls-27,.cls-29,.cls-3,.cls-30,.cls-35,.cls-36,.cls-37,.cls-5{fill:none;}.cls-1,.cls-10,.cls-11,.cls-17,.cls-18,.cls-2,.cls-20,.cls-21,.cls-23,.cls-24,.cls-26,.cls-27,.cls-28,.cls-30,.cls-38,.cls-6{stroke:#43566b;}.cls-1,.cls-11,.cls-14,.cls-15,.cls-16,.cls-17,.cls-18,.cls-19,.cls-20,.cls-21,.cls-23,.cls-25,.cls-26,.cls-27,.cls-29,.cls-3,.cls-30,.cls-32,.cls-35,.cls-36,.cls-37,.cls-38,.cls-5,.cls-6,.cls-7{stroke-miterlimit:10;}.cls-1,.cls-10,.cls-11,.cls-14,.cls-15,.cls-16,.cls-17,.cls-18,.cls-19,.cls-2,.cls-20,.cls-21,.cls-23,.cls-24,.cls-25,.cls-26,.cls-27,.cls-28,.cls-29,.cls-3,.cls-30,.cls-31,.cls-32,.cls-34,.cls-35,.cls-37,.cls-38,.cls-5,.cls-6,.cls-7,.cls-8{stroke-width:2px;}.cls-12,.cls-2,.cls-32,.cls-34,.cls-6,.cls-7,.cls-8{fill:#fff;}.cls-10,.cls-2,.cls-22,.cls-24,.cls-28,.cls-31,.cls-34,.cls-8{stroke-linejoin:round;}.cls-25,.cls-3{stroke:#386f7c;}.cls-26,.cls-4{fill:#386f7c;}.cls-14,.cls-15,.cls-16,.cls-29,.cls-5{stroke:#82bbc9;}.cls-37,.cls-7,.cls-8{stroke:#d69080;}.cls-11,.cls-9{fill:#82bbc9;}.cls-10{stroke-dasharray:2 2 23;}.cls-13{fill:#43566b;}.cls-14{stroke-dasharray:1.83 1.83;}.cls-15{stroke-dasharray:1.9 1.9;}.cls-16{stroke-dasharray:1.84 1.84;}.cls-17,.cls-22,.cls-30,.cls-36{stroke-linecap:round;}.cls-17{stroke-dasharray:0 5;}.cls-18{stroke-dasharray:2.06 1.03;}.cls-19,.cls-23,.cls-28,.cls-31,.cls-33{fill:#d69080;}.cls-19,.cls-31,.cls-32,.cls-34,.cls-35{stroke:#ae7568;}.cls-20{fill:#bfdeff;}.cls-21{stroke-dasharray:4 1;}.cls-22,.cls-36{stroke:#fff;}.cls-22{stroke-width:3px;}.cls-24{stroke-dasharray:2 2 10;}.cls-25,.cls-29{stroke-dasharray:2 2;}.cls-27{stroke-dasharray:11 6 4 2;}.cls-38{fill:#00a0d8;}</style></defs><title>sell_img1</title><line class="cls-1" x1="578.37" y1="241.37" y2="241.37"/><path class="cls-2" d="M96.27,227.86v1.42c0,6.63,4.24,12,10.85,12.1H48.68a12.1,12.1,0,0,1-12-12.1v-1.42Z"/><line class="cls-3" x1="73.6" y1="138.84" x2="73.6" y2="27.19"/><path class="cls-4" d="M73.6,21.16a30.22,30.22,0,0,0,4.76,8.55L73.6,28,68.84,29.7A30.2,30.2,0,0,0,73.6,21.16Z"/><line class="cls-3" x1="90.42" y1="138.84" x2="90.42" y2="27.19"/><path class="cls-4" d="M90.42,21.16a30.22,30.22,0,0,0,4.76,8.55L90.42,28,85.66,29.7A30.2,30.2,0,0,0,90.42,21.16Z"/><line class="cls-3" x1="107.24" y1="138.84" x2="107.24" y2="27.19"/><path class="cls-4" d="M107.24,21.16A30.22,30.22,0,0,0,112,29.7L107.24,28l-4.75,1.72A30.2,30.2,0,0,0,107.24,21.16Z"/><path class="cls-5" d="M325.27,157.8c-22.14,0-40.15-18.44-40.15-41.1s18-41.11,40.15-41.11S365.41,94,365.41,116.7,347.4,157.8,325.27,157.8Z"/><ellipse class="cls-6" cx="325.27" cy="116.7" rx="33.65" ry="34.61"/><line class="cls-1" x1="325.27" y1="151.3" x2="325.27" y2="82.09"/><path class="cls-1" d="M322.62,82.2a73.61,73.61,0,0,0,.64,69"/><path class="cls-1" d="M328,82.2a73.61,73.61,0,0,1-.64,69"/><line class="cls-1" x1="358.91" y1="116.7" x2="291.62" y2="116.7"/><path class="cls-1" d="M357.45,106.58a150,150,0,0,1-64.37,0"/><path class="cls-1" d="M357.36,127.13a150,150,0,0,0-64.18,0"/><path class="cls-1" d="M346.13,89.54a40.39,40.39,0,0,1-41.71,0"/><path class="cls-1" d="M347.48,142.69a40.38,40.38,0,0,0-44.42,0"/><path class="cls-1" d="M318.55,82.78c-24.14,15.73-24.14,52.1,0,67.83"/><path class="cls-1" d="M331.8,82.66c24.33,15.66,24.39,52.18.19,67.95"/><polygon class="cls-2" points="415.03 74.11 415.03 153.76 475.26 153.76 475.26 77.77 468.31 74.11 415.03 74.11"/><polygon class="cls-2" points="468.31 74.11 475.26 77.77 469.48 79.51 468.31 74.11"/><rect class="cls-7" x="422.43" y="103.18" width="2.82" height="5.64"/><rect class="cls-7" x="429.49" y="98.95" width="2.82" height="9.88"/><rect class="cls-7" x="436.54" y="93.31" width="2.82" height="15.52"/><rect class="cls-7" x="443.6" y="90.49" width="2.82" height="18.34"/><rect class="cls-7" x="450.65" y="86.25" width="2.82" height="22.57"/><rect class="cls-7" x="457.71" y="88.32" width="2.82" height="20.51"/><rect class="cls-7" x="464.76" y="84.09" width="2.82" height="24.74"/><line class="cls-8" x1="468.77" y1="113.15" x2="421.25" y2="113.15"/><polygon class="cls-4" points="442.28 129.76 447.71 120.35 453.14 129.76 442.28 129.76"/><polygon class="cls-9" points="438.01 129.76 443.45 116.7 448.88 129.76 438.01 129.76"/><polygon class="cls-4" points="430.4 129.76 435.83 120.35 441.26 129.76 430.4 129.76"/><polygon class="cls-4" points="426.13 129.76 431.57 116.7 437 129.76 426.13 129.76"/><polygon class="cls-4" points="453.01 129.76 458.45 117.61 463.88 129.76 453.01 129.76"/><polygon class="cls-9" points="448.75 129.76 454.18 120.35 459.62 129.76 448.75 129.76"/><line class="cls-10" x1="467.63" y1="136.98" x2="422.38" y2="136.98"/><line class="cls-10" x1="467.63" y1="142.23" x2="422.38" y2="142.23"/><line class="cls-10" x1="467.63" y1="147.48" x2="422.38" y2="147.48"/><rect class="cls-2" x="424.41" y="136.87" width="10.36" height="10.77"/><rect class="cls-11" x="271.12" y="120.84" width="27.4" height="77.15"/><rect class="cls-12" x="275.69" y="125.41" width="18.27" height="68.01"/><rect class="cls-1" x="275.69" y="125.41" width="18.27" height="68.01"/><ellipse class="cls-6" cx="284.83" cy="159.42" rx="11.04" ry="8.94"/><path class="cls-13" d="M281.45,156.93a2.94,2.94,0,0,0-1,2.14,1.4,1.4,0,0,0,1.47,1.6c2.21,0,1.77-5,5.49-5a3.25,3.25,0,0,1,3.37,2.86h1.9V160h-1.84a5.7,5.7,0,0,1-1.4,3.19l-1.44-1a4.42,4.42,0,0,0,1.14-2.73c0-1.2-.59-1.79-1.58-1.79-2.43,0-2.08,5-5.55,5a3.13,3.13,0,0,1-3.23-2.73h-1.88v-1.47h1.84a4.28,4.28,0,0,1,1.44-2.67Z"/><circle class="cls-6" cx="284.19" cy="138.29" r="2.74"/><circle class="cls-6" cx="284.19" cy="179.51" r="2.74"/><rect class="cls-11" x="323.59" y="103.45" width="27.4" height="77.15"/><rect class="cls-12" x="328.16" y="108.02" width="18.27" height="68.01"/><rect class="cls-1" x="328.16" y="108.02" width="18.27" height="68.01"/><ellipse class="cls-6" cx="337.29" cy="142.02" rx="11.04" ry="8.94"/><path class="cls-13" d="M333.92,139.53a2.94,2.94,0,0,0-1,2.14,1.4,1.4,0,0,0,1.47,1.6c2.21,0,1.77-5,5.49-5a3.25,3.25,0,0,1,3.37,2.86h1.9v1.47h-1.84a5.7,5.7,0,0,1-1.4,3.19l-1.44-1a4.42,4.42,0,0,0,1.14-2.73c0-1.2-.59-1.79-1.58-1.79-2.43,0-2.08,5-5.55,5a3.13,3.13,0,0,1-3.23-2.73h-1.88v-1.47h1.84a4.28,4.28,0,0,1,1.44-2.67Z"/><circle class="cls-6" cx="336.65" cy="120.9" r="2.74"/><circle class="cls-6" cx="336.65" cy="162.11" r="2.74"/><rect class="cls-6" x="246.13" y="167.32" width="27.4" height="77.15" transform="translate(465.73 -53.93) rotate(90)"/><rect class="cls-12" x="225.82" y="196.76" width="68.01" height="18.27"/><rect class="cls-1" x="225.82" y="196.76" width="68.01" height="18.27"/><ellipse class="cls-6" cx="259.83" cy="205.9" rx="8.94" ry="11.04"/><path class="cls-13" d="M262.32,202.52a2.94,2.94,0,0,0-2.14-1,1.4,1.4,0,0,0-1.6,1.47c0,2.21,5,1.77,5,5.49a3.25,3.25,0,0,1-2.86,3.37v1.9h-1.47v-1.84a5.7,5.7,0,0,1-3.19-1.4l1-1.44a4.42,4.42,0,0,0,2.73,1.14c1.2,0,1.79-.59,1.79-1.58,0-2.43-5-2.08-5-5.55a3.13,3.13,0,0,1,2.73-3.23V198h1.47v1.84a4.28,4.28,0,0,1,2.67,1.44Z"/><circle class="cls-6" cx="280.96" cy="205.26" r="2.74"/><circle class="cls-6" cx="239.74" cy="205.26" r="2.74"/><path class="cls-5" d="M526.89,60.34q0-.51,0-1"/><path class="cls-14" d="M527.28,57.54a10.3,10.3,0,0,1,9.9-7.48h.46"/><path class="cls-5" d="M538.54,50.15q.5.07,1,.18a9.19,9.19,0,0,1,.29-1"/><path class="cls-15" d="M540.63,47.66A9.29,9.29,0,0,1,556,46.89"/><path class="cls-5" d="M556.49,47.69a9.19,9.19,0,0,1,.47.88q.46-.18.94-.32"/><path class="cls-16" d="M559.7,47.87a11.42,11.42,0,0,1,12.68,9.42"/><path class="cls-5" d="M572.5,58.21q0,.49,0,1"/><path class="cls-5" d="M142.24,43.52q0-.51,0-1"/><path class="cls-14" d="M142.63,40.72a10.31,10.31,0,0,1,9.9-7.48H153"/><path class="cls-5" d="M153.89,33.32q.5.07,1,.18a9.22,9.22,0,0,1,.29-1"/><path class="cls-15" d="M156,30.83a9.29,9.29,0,0,1,15.32-.77"/><path class="cls-5" d="M171.84,30.86a9.19,9.19,0,0,1,.47.88q.46-.18.94-.32"/><path class="cls-16" d="M175,31a11.42,11.42,0,0,1,12.68,9.42"/><path class="cls-5" d="M187.84,41.38q0,.49,0,1"/><circle class="cls-6" cx="209.31" cy="25.37" r="18.86"/><circle class="cls-17" cx="209.31" cy="25.37" r="14.97"/><path class="cls-4" d="M217.28,33.11a1.08,1.08,0,0,1-.49-.12l-9-4.62a1.08,1.08,0,0,1-.59-1V20.24a1.08,1.08,0,0,1,1.08-1.08h0a1.08,1.08,0,0,1,1.08,1.08v6.51l8.39,4.32a1.08,1.08,0,0,1-.5,2Z"/><circle class="cls-5" cx="349.55" cy="198.71" r="3"/><circle class="cls-5" cx="516.02" cy="39.07" r="3"/><circle class="cls-5" cx="375.56" cy="78.04" r="4.5"/><circle class="cls-5" cx="170.32" cy="48.86" r="4.5"/><circle class="cls-9" cx="485.33" cy="28.44" r="2.28"/><circle class="cls-9" cx="485.33" cy="18.07" r="2.28"/><circle class="cls-9" cx="485.33" cy="7.7" r="2.28"/><circle class="cls-9" cx="565.46" cy="106.69" r="2.28"/><circle class="cls-9" cx="565.46" cy="96.31" r="2.28"/><circle class="cls-9" cx="565.46" cy="85.94" r="2.28"/><circle class="cls-9" cx="501.96" cy="167.37" r="2.28"/><circle class="cls-9" cx="501.96" cy="157" r="2.28"/><circle class="cls-9" cx="501.96" cy="146.63" r="2.28"/><rect class="cls-9" x="50.95" y="209.34" width="2.57" height="2.57"/><rect class="cls-9" x="50.95" y="204.61" width="2.57" height="2.57"/><rect class="cls-9" x="50.95" y="199.89" width="2.57" height="2.57"/><rect class="cls-11" x="468.02" y="183.07" width="67.13" height="58.3"/><rect class="cls-6" x="519.25" y="183.07" width="15.9" height="58.3"/><line class="cls-1" x1="473.32" y1="190.14" x2="474.19" y2="190.14"/><line class="cls-18" x1="475.1" y1="190.14" x2="512.62" y2="190.14"/><line class="cls-1" x1="513.07" y1="190.14" x2="513.95" y2="190.14"/><line class="cls-1" x1="473.32" y1="234.31" x2="474.19" y2="234.31"/><line class="cls-18" x1="475.1" y1="234.31" x2="512.62" y2="234.31"/><line class="cls-1" x1="513.07" y1="234.31" x2="513.95" y2="234.31"/><path class="cls-6" d="M524.55,203.94h18.94a4,4,0,0,1,4,4V214a4,4,0,0,1-4,4H528.58a4,4,0,0,1-4-4v-10.1A0,0,0,0,1,524.55,203.94Z"/><circle class="cls-11" cx="539.34" cy="211.01" r="2.88" transform="translate(-11.16 31.11) rotate(-3.27)"/><rect class="cls-11" x="273.62" y="147.76" width="72.47" height="44.86" rx="1.64" ry="1.64" transform="translate(139.67 480.05) rotate(-90)"/><rect class="cls-6" x="264.91" y="166.74" width="72.47" height="6.9" transform="translate(130.96 471.34) rotate(-90)"/><path class="cls-6" d="M311.34,171.7V147.14"/><path class="cls-6" d="M311.34,201.35V175"/><line class="cls-6" x1="317.25" y1="201.35" x2="317.25" y2="182.76"/><line class="cls-6" x1="317.25" y1="180.59" x2="317.25" y2="170.42"/><line class="cls-6" x1="321.27" y1="201.35" x2="321.27" y2="182.76"/><line class="cls-6" x1="321.27" y1="180.59" x2="321.27" y2="170.42"/><line class="cls-6" x1="317.25" y1="168.37" x2="317.25" y2="158.21"/><circle class="cls-19" cx="305.51" cy="214.83" r="34.13"/><path class="cls-12" d="M327.17,199.29h-6.65l-2.08,7.8H287.59a.75.75,0,0,0-.26,0,.78.78,0,0,0-.48,1l5.64,16.12h23l6.24-23.4h5.45a.78.78,0,0,0,0-1.56Zm-9.87,12.09h-3.36l.43-2.73H318Zm-1,3.9h-2.93l.49-3.12h3.27Zm-1,3.9h-2.51l.49-3.12h2.85Zm-11.05,3.51-.68-2.73h4.24l.41,2.73Zm-5.45,0-.69-2.73h4.66l.69,2.73Zm-4.31-14,.68,2.73h-5.44l-1-2.73Zm5.46,0,.68,2.73h-4.66l-.68-2.73Zm2.46,6.63-.78-3.12h5l.47,3.12Zm4.82.78.47,3.12H303.3l-.78-3.12Zm-5.62-.78h-4.65l-.78-3.12h4.66Zm5.83-3.12H313l-.49,3.12h-4.73Zm-.12-.78-.41-2.73h6.77l-.43,2.73Zm-.79,0h-5.09l-.68-2.73H306Zm-11.16.78.78,3.12h-5l-1.09-3.12Zm-4,3.9h5l.78,3.12h-4.66Zm5.77,0h4.65l.78,3.12h-4.66Zm11.46,3.9h3.29l-.42,2.67s0,0,0,.06h-2.46Zm-.12-.78-.47-3.12h4.49l-.49,3.12Zm-15.75.78h4.58l.68,2.73h-4.31Zm19.51,2.73.43-2.73H315l-.73,2.73Z"/><path class="cls-12" d="M311.38,225a3.5,3.5,0,0,0-3.42,2.73h-8a3.49,3.49,0,1,0,.09.78h7.8a3.51,3.51,0,1,0,3.51-3.51Zm-14.82,5.45a1.95,1.95,0,1,1,2-1.95A2,2,0,0,1,296.56,230.48Zm14.82,0a1.95,1.95,0,1,1,1.95-1.95A2,2,0,0,1,311.38,230.48Z"/><rect class="cls-12" x="370.65" y="140.91" width="111.62" height="73.67"/><rect class="cls-6" x="365.9" y="136" width="122.79" height="84.7"/><rect class="cls-6" x="365.9" y="136" width="122.79" height="84.7"/><rect class="cls-2" x="371.35" y="141.46" width="111.89" height="73.79"/><line class="cls-20" x1="483.24" y1="149.37" x2="371.35" y2="149.37"/><line class="cls-21" x1="375.89" y1="145.48" x2="405.26" y2="145.48"/><line class="cls-21" x1="448.73" y1="145.48" x2="478.11" y2="145.48"/><polygon class="cls-6" points="443.61 236.16 412.96 236.16 417.87 220.53 438.7 220.53 443.61 236.16"/><rect class="cls-6" x="407.55" y="236.16" width="41.47" height="5.22"/><rect class="cls-1" x="389.51" y="174.09" width="38.79" height="5.4"/><rect class="cls-1" x="382.15" y="165.77" width="55.37" height="32.94" rx="1.75" ry="1.75"/><line class="cls-1" x1="389.34" y1="170.72" x2="401.26" y2="170.72"/><rect class="cls-1" x="389.51" y="186.68" width="16.47" height="5.4"/><rect class="cls-1" x="410.65" y="186.68" width="16.47" height="5.4"/><line class="cls-1" x1="389.34" y1="183.31" x2="401.26" y2="183.31"/><line class="cls-1" x1="409.8" y1="183.31" x2="421.72" y2="183.31"/><path class="cls-19" d="M443.32,159.06c-8.55,5.6-17.15,3.13-25.2-2.06,0,0-.12,40.19,25.2,48.9,25.31-8.71,25.2-48.9,25.2-48.9C460.47,162.19,451.87,164.5,443.32,159.06Z"/><polyline class="cls-22" points="436.86 181.24 443.21 185.51 449.79 173.31"/><path class="cls-11" d="M94.5,240.92V158c0-6.63-14.94-12-21.55-12.05h0l58.63,0h0c6.62.08,10.83,5.46,10.83,12.1v82.93Z"/><path class="cls-2" d="M61.9,226.11V158a12.1,12.1,0,0,1,12-12.1h57.45c-6.62.08-9.86,5.46-9.86,12.1v68.12a15.26,15.26,0,0,1-15.26,15.26H50.68v-.55A15.26,15.26,0,0,0,61.9,226.11Z"/><path class="cls-2" d="M78.41,161.62a18,18,0,0,1,25.5-1L91.65,173.88Z"/><path class="cls-11" d="M103.91,160.64a18,18,0,0,1,4.38,20.23l-16.64-7Z"/><path class="cls-23" d="M108.28,180.87a18,18,0,1,1-29.88-19.25l13.24,12.26Z"/><line class="cls-24" x1="112.01" y1="204.85" x2="70.64" y2="204.85"/><line class="cls-24" x1="112.01" y1="211.54" x2="70.64" y2="211.54"/><line class="cls-24" x1="112.01" y1="218.23" x2="70.64" y2="218.23"/><rect class="cls-2" x="70.9" y="204.71" width="13.19" height="13.72"/><path class="cls-19" d="M44.68,147a13.94,13.94,0,1,1,13.94-13.94A14,14,0,0,1,44.68,147Z"/><path class="cls-12" d="M46.74,129.83a2.57,2.57,0,0,0-1.87-.86,1.23,1.23,0,0,0-1.4,1.29c0,1.94,4.39,1.55,4.39,4.81a2.85,2.85,0,0,1-2.5,3v1.66H44.06v-1.61a5,5,0,0,1-2.79-1.23l.84-1.26a3.87,3.87,0,0,0,2.39,1c1,0,1.57-.52,1.57-1.39,0-2.13-4.39-1.82-4.39-4.86a2.75,2.75,0,0,1,2.39-2.83v-1.65h1.29v1.62a3.75,3.75,0,0,1,2.34,1.26Z"/><path class="cls-6" d="M249.57,181.7a10,10,0,1,1,10-10A10,10,0,0,1,249.57,181.7Z"/><path class="cls-13" d="M251,169.37a1.84,1.84,0,0,0-1.34-.61.88.88,0,0,0-1,.93c0,1.39,3.15,1.11,3.15,3.45a2,2,0,0,1-1.79,2.12v1.19h-.93v-1.16a3.58,3.58,0,0,1-2-.88l.6-.9a2.77,2.77,0,0,0,1.71.72c.75,0,1.12-.37,1.12-1,0-1.53-3.15-1.31-3.15-3.49a2,2,0,0,1,1.71-2v-1.18h.93v1.16a2.69,2.69,0,0,1,1.68.9Z"/><path class="cls-6" d="M568.37,163.76a10,10,0,1,1,10-10A10,10,0,0,1,568.37,163.76Z"/><path class="cls-13" d="M569.85,151.43a1.84,1.84,0,0,0-1.34-.61.88.88,0,0,0-1,.93c0,1.39,3.15,1.11,3.15,3.45a2,2,0,0,1-1.79,2.12v1.19h-.93v-1.16a3.58,3.58,0,0,1-2-.88l.6-.9a2.77,2.77,0,0,0,1.71.72c.75,0,1.12-.37,1.12-1,0-1.53-3.15-1.31-3.15-3.49a2,2,0,0,1,1.71-2V148.6h.93v1.16a2.69,2.69,0,0,1,1.68.9Z"/><path class="cls-6" d="M153.63,86.54a10,10,0,1,1,10-10A10,10,0,0,1,153.63,86.54Z"/><path class="cls-13" d="M155.11,74.21a1.85,1.85,0,0,0-1.34-.61.88.88,0,0,0-1,.93c0,1.39,3.15,1.11,3.15,3.45a2,2,0,0,1-1.79,2.12v1.19h-.93V80.13a3.58,3.58,0,0,1-2-.88l.6-.9a2.77,2.77,0,0,0,1.71.72c.75,0,1.12-.37,1.12-1,0-1.53-3.15-1.31-3.15-3.49a2,2,0,0,1,1.71-2V71.37h.93v1.16a2.69,2.69,0,0,1,1.68.9Z"/><line class="cls-25" x1="209.31" y1="147.77" x2="209.31" y2="240.78"/><path class="cls-19" d="M389.51,120.6a13.94,13.94,0,1,1,13.94-13.94A14,14,0,0,1,389.51,120.6Z"/><path class="cls-12" d="M391.57,103.41a2.57,2.57,0,0,0-1.87-.86,1.23,1.23,0,0,0-1.4,1.29c0,1.94,4.39,1.55,4.39,4.81a2.85,2.85,0,0,1-2.5,3v1.66h-1.29v-1.61a5,5,0,0,1-2.79-1.23l.84-1.26a3.87,3.87,0,0,0,2.39,1c1,0,1.57-.52,1.57-1.39,0-2.13-4.39-1.82-4.39-4.86a2.75,2.75,0,0,1,2.39-2.83V99.45h1.29v1.61a3.75,3.75,0,0,1,2.34,1.26Z"/><polygon class="cls-2" points="534.35 177.55 554.76 193.13 513.95 193.13 534.35 177.55"/><polygon class="cls-2" points="534.35 177.55 513.95 193.13 513.95 180.45 513.95 167.76 534.35 167.76 554.76 167.76 554.76 180.45 554.76 193.13 534.35 177.55"/><polygon class="cls-2" points="534.35 183.35 554.76 167.76 513.95 167.76 534.35 183.35"/><path class="cls-1" d="M133.22,115.27l6-.41A3.28,3.28,0,0,0,142,113l6.71-14.31A1.34,1.34,0,0,1,150,97.55a5.37,5.37,0,0,1,1.44.2c5.75,1.6-.76,9.08,1.11,21l.12,1.06a7.74,7.74,0,0,1-6,8.38l-4.69,1.08"/><path class="cls-6" d="M133.22,115.27l6-.41A3.28,3.28,0,0,0,142,113l6.71-14.31A1.34,1.34,0,0,1,150,97.55a5.37,5.37,0,0,1,1.44.2c5.75,1.6-.76,9.08,1.11,21l6.38-1.15.11,21.36-5.15-1c-7.72,1-9,.76-18.49-4.38Z"/><rect class="cls-11" x="125.85" y="111.26" width="9.53" height="28.07"/><path class="cls-6" d="M169.71,121.85H161a2.86,2.86,0,0,1-2.86-2.86h0a2.86,2.86,0,0,1,2.86-2.86h8.68a2.86,2.86,0,0,1,2.86,2.86h0A2.86,2.86,0,0,1,169.71,121.85Z"/><path class="cls-6" d="M169,127.56h-8.68a2.86,2.86,0,0,1-2.86-2.86h0a2.86,2.86,0,0,1,2.86-2.86H169a2.86,2.86,0,0,1,2.86,2.86h0A2.86,2.86,0,0,1,169,127.56Z"/><path class="cls-6" d="M168.21,133.27h-8.68a2.86,2.86,0,0,1-2.86-2.86h0a2.86,2.86,0,0,1,2.86-2.86h8.68a2.86,2.86,0,0,1,2.86,2.86h0A2.86,2.86,0,0,1,168.21,133.27Z"/><path class="cls-6" d="M167.47,139h-8.68a2.86,2.86,0,0,1-2.86-2.86h0a2.86,2.86,0,0,1,2.86-2.86h8.68a2.86,2.86,0,0,1,2.86,2.86h0A2.86,2.86,0,0,1,167.47,139Z"/><rect class="cls-11" x="216.21" y="93.78" width="55.86" height="34.58" rx="2.6" ry="2.6" transform="translate(133.07 355.21) rotate(-90)"/><rect class="cls-6" x="209.5" y="108.41" width="55.86" height="5.32" transform="translate(126.36 348.49) rotate(-90)"/><path class="cls-6" d="M245.28,112.23V93.3"/><path class="cls-6" d="M245.28,135.08V114.78"/><line class="cls-6" x1="249.84" y1="135.08" x2="249.84" y2="120.76"/><line class="cls-6" x1="249.84" y1="119.08" x2="249.84" y2="111.25"/><line class="cls-6" x1="252.93" y1="135.08" x2="252.93" y2="120.76"/><line class="cls-6" x1="252.93" y1="119.08" x2="252.93" y2="111.25"/><line class="cls-6" x1="249.84" y1="109.66" x2="249.84" y2="101.83"/><rect class="cls-6" x="183.42" y="59.34" width="53.12" height="89.33" rx="4.83" ry="4.83"/><rect class="cls-26" x="188.25" y="69.97" width="43.46" height="66.4"/><line class="cls-27" x1="188.79" y1="65.83" x2="231.74" y2="65.83"/><path class="cls-2" d="M180.22,79.79V93a4,4,0,0,0,4,4h2a4,4,0,0,0,4-4V79.79Z"/><path class="cls-28" d="M190.12,79.79V93a4,4,0,0,0,4,4h2a4,4,0,0,0,4-4V79.79Z"/><path class="cls-2" d="M200,79.79V93a4,4,0,0,0,4,4h2a4,4,0,0,0,4-4V79.79Z"/><path class="cls-28" d="M209.92,79.79V93a4,4,0,0,0,4,4h2a4,4,0,0,0,4-4V79.79Z"/><path class="cls-2" d="M219.82,79.79V93a4,4,0,0,0,4,4h2a4,4,0,0,0,4-4V79.79Z"/><path class="cls-28" d="M229.73,93a4,4,0,0,0,4,4h2a4,4,0,0,0,4-4V79.79h-9.9Z"/><polygon class="cls-28" points="200.02 79.79 190.12 79.79 195.28 59.33 202.71 59.33 200.02 79.79"/><polygon class="cls-28" points="219.82 79.79 209.92 79.79 210.13 59.33 217.56 59.33 219.82 79.79"/><polygon class="cls-2" points="190.12 79.79 180.22 79.79 187.85 59.33 195.28 59.33 190.12 79.79"/><polygon class="cls-2" points="209.92 79.79 200.02 79.79 202.71 59.33 210.13 59.33 209.92 79.79"/><polygon class="cls-2" points="229.73 79.79 219.82 79.79 217.56 59.33 224.98 59.33 229.73 79.79"/><polygon class="cls-28" points="239.63 79.79 229.73 79.79 224.98 59.33 232.41 59.33 239.63 79.79"/><rect class="cls-12" x="196.7" y="109.65" width="27.23" height="11.56" rx="3.06" ry="3.06"/><path class="cls-13" d="M203.19,112.65h2.13c1.2,0,1.73.63,1.73,1.39a1.09,1.09,0,0,1-.67,1.1,1.37,1.37,0,0,1,.86,1.33c0,1.06-.8,1.66-2,1.66h-2.09Zm1.93,2.15c.58,0,.84-.18.84-.65s-.3-.66-.78-.66h-.9v1.3Zm-.84,2.49h.91c.51,0,.9-.25.9-.82s-.31-.82-1-.82h-.83Z"/><path class="cls-13" d="M209.18,112.65v3.49c0,.62.17,1.18,1,1.18s1-.54,1-1.18v-3.49h1.13v3.51c0,1.14-.49,2-2.14,2s-2.11-.87-2.11-2v-3.52Z"/><path class="cls-13" d="M214.53,118.12v-2.06a.28.28,0,0,0,0-.18l-1.74-3.24H214l1.13,2.38c.36-.78.78-1.62,1.14-2.38h1.16l-1.74,3.21a.26.26,0,0,0,0,.17v2.09Z"/><circle class="cls-29" cx="87.89" cy="89.79" r="27.09"/><path class="cls-11" d="M70.66,73.83a23.49,23.49,0,0,1,33.2-1.28l-16,17.24Z"/><path class="cls-6" d="M107.9,68.18a29.45,29.45,0,0,1,7.14,33L87.89,89.79Z"/><path class="cls-28" d="M109.55,98.89A23.49,23.49,0,1,1,70.66,73.83l17.24,16Z"/><path class="cls-29" d="M46.34,89.79a41.55,41.55,0,1,1,83.1,0"/><rect class="cls-6" x="140.93" y="196.1" width="8.72" height="34.64"/><rect class="cls-11" x="135.72" y="224.94" width="19.13" height="5.79"/><rect class="cls-6" x="167.47" y="196.1" width="8.72" height="34.64"/><rect class="cls-11" x="162.27" y="224.94" width="19.13" height="5.79"/><rect class="cls-6" x="194.01" y="196.1" width="8.72" height="34.64"/><rect class="cls-11" x="188.81" y="224.94" width="19.13" height="5.79"/><rect class="cls-6" x="130.77" y="230.6" width="82.54" height="5.39"/><rect class="cls-11" x="126.54" y="235.99" width="91" height="5.39"/><rect class="cls-11" x="133.49" y="190.71" width="77.1" height="5.39"/><polygon class="cls-11" points="140.93 190.71 172.04 163.4 202.73 190.71 140.93 190.71"/><line class="cls-30" x1="181.39" y1="178.06" x2="188.81" y2="184.64"/><polyline class="cls-30" points="163.25 177.06 171.83 169.58 177.8 174.88"/><line class="cls-30" x1="152.76" y1="186.19" x2="159.79" y2="180.06"/><path class="cls-31" d="M151.79,160.28c6.47.59,9.49.45,12.56-5h15.37c3.05,5.38,7.15,5.58,12.67,4.95,3.8,24.15-4.24,37.55-20.36,48.55C155.83,197.75,147.58,183.34,151.79,160.28Z"/><path class="cls-32" d="M172,200.38c-4.22-3.37-16.74-15-14.59-32.48a13.84,13.84,0,0,0,10.83-5.71h7.51a13.84,13.84,0,0,0,10.83,5.71C188.78,185.42,176.26,197,172,200.38Z"/><path class="cls-33" d="M170.81,190v-2.48c-2.91-.45-4.36-2.2-4.46-4.66h3.33a2.47,2.47,0,0,0,2.63,2.33c1.73,0,2.38-.8,2.38-2s-.65-1.93-3.06-2.81c-3.78-1.35-5.09-2.81-5.09-5.14,0-2.88,2-4.31,4.26-4.66v-1.93h3v2a4.46,4.46,0,0,1,4.08,4.44h-3.41a2.17,2.17,0,0,0-2.33-2.18,1.76,1.76,0,0,0-2,1.85c0,1,.5,1.6,3.16,2.58,3.78,1.4,5,2.91,5,5.39,0,2.93-1.85,4.43-4.46,4.83V190Z"/><rect class="cls-6" x="497.39" y="82.22" width="70.01" height="43.34" rx="2.6" ry="2.6" transform="translate(428.51 636.29) rotate(-90)"/><rect class="cls-6" x="488.98" y="100.55" width="70.01" height="6.67" transform="translate(420.1 627.87) rotate(-90)"/><path class="cls-6" d="M533.83,105.35V81.62"/><path class="cls-6" d="M533.83,134V108.54"/><line class="cls-6" x1="539.54" y1="133.99" x2="539.54" y2="116.03"/><line class="cls-6" x1="539.54" y1="113.93" x2="539.54" y2="104.11"/><line class="cls-6" x1="539.54" y1="102.13" x2="539.54" y2="92.31"/><path class="cls-32" d="M524.52,93.52h-4.24V89.85a9.09,9.09,0,0,0-9.08-9.08h-1.82a9.09,9.09,0,0,0-9.08,9.08v3.67h-4.24V89.85a13.33,13.33,0,0,1,13.31-13.31h1.82a13.33,13.33,0,0,1,13.31,13.31Z"/><rect class="cls-31" x="490.94" y="93.52" width="38.72" height="28.13" rx="5.33" ry="5.33"/><rect class="cls-34" x="501.37" y="100.25" width="17.55" height="3.78"/><line class="cls-35" x1="501.37" y1="108.27" x2="505.91" y2="108.27"/><line class="cls-35" x1="508.03" y1="108.27" x2="512.57" y2="108.27"/><line class="cls-35" x1="514.68" y1="108.27" x2="519.22" y2="108.27"/><line class="cls-35" x1="501.37" y1="111.59" x2="505.91" y2="111.59"/><line class="cls-35" x1="508.03" y1="111.59" x2="512.57" y2="111.59"/><line class="cls-35" x1="514.68" y1="111.59" x2="519.22" y2="111.59"/><line class="cls-35" x1="501.37" y1="114.92" x2="505.91" y2="114.92"/><line class="cls-35" x1="508.03" y1="114.92" x2="512.57" y2="114.92"/><line class="cls-35" x1="514.68" y1="114.92" x2="519.22" y2="114.92"/><line class="cls-25" x1="325.16" y1="28.13" x2="325.16" y2="73.56"/><path class="cls-33" d="M259,57.23c5.92,0,10.71,4.18,10.71,9.34,0-5.16,4.8-9.34,10.71-9.34s10.71,4.18,10.71,9.34c0-5.16,4.8-9.34,10.71-9.34s10.71,4.18,10.71,9.34c0-5.16,4.8-9.34,10.71-9.34s10.71,4.18,10.71,9.34c0-5.16,4.8-9.34,10.71-9.34s10.71,4.18,10.71,9.34c0-5.16,4.8-9.34,10.71-9.34s10.71,4.18,10.71,9.34c0-5.16,4.8-9.34,10.71-9.34a10.87,10.87,0,0,1,9.69,5.42C391.37,31.57,360.83,7.86,324,7.86c-35.78,0-65.61,22.36-72.62,52.11A11.51,11.51,0,0,1,259,57.23Z"/><path class="cls-36" d="M268.55,37.21A70.21,70.21,0,0,1,304.7,14.89"/><path class="cls-30" d="M251.36,39.73C265.28,16.48,293.06,1,324,1c32,0,59.95,16,73.47,40"/><polyline class="cls-37" points="399.39 71.76 409.4 59.54 417.03 66.45 427.87 53.02 435.33 59.24 445.97 44.08"/><path class="cls-33" d="M449.43,39.13a30.22,30.22,0,0,0-1,9.73l-2.91-4.14-4.88-1.32A30.2,30.2,0,0,0,449.43,39.13Z"/><polyline class="cls-5" points="2.63 211.17 12.64 198.95 20.27 205.86 31.11 192.44 38.56 198.66 49.21 183.49"/><path class="cls-9" d="M52.67,178.55a30.22,30.22,0,0,0-1,9.73l-2.91-4.14-4.88-1.32A30.19,30.19,0,0,0,52.67,178.55Z"/><circle class="cls-12" cx="364.72" cy="236.12" r="4.49"/><path class="cls-13" d="M364.72,232.4a3.72,3.72,0,1,1-3.72,3.72,3.72,3.72,0,0,1,3.72-3.72m0-1.54a5.25,5.25,0,1,0,5.25,5.25,5.25,5.25,0,0,0-5.25-5.25Z"/><circle class="cls-12" cx="408.07" cy="236.12" r="4.49"/><path class="cls-13" d="M408.07,232.4a3.72,3.72,0,1,1-3.72,3.72,3.72,3.72,0,0,1,3.72-3.72m0-1.54a5.25,5.25,0,1,0,5.25,5.25,5.25,5.25,0,0,0-5.25-5.25Z"/><path class="cls-11" d="M422.88,213.79H406.63v15.81c3.43.22,7,.2,8,6.53h17.44Z"/><path class="cls-11" d="M406.76,229.68V205.9H352.9v30.21h5.25a6.57,6.57,0,1,1,13.14,0H401.5A6.58,6.58,0,0,1,406.76,229.68Z"/><polygon class="cls-6" points="422.87 226.92 418.55 217.44 411.11 217.44 411.11 226.92 422.87 226.92"/><line class="cls-30" x1="346.33" y1="219.04" x2="358.15" y2="219.04"/><line class="cls-30" x1="343.7" y1="222.98" x2="358.15" y2="222.98"/><line class="cls-30" x1="341.08" y1="226.92" x2="358.15" y2="226.92"/><line class="cls-38" x1="393.62" y1="205.9" x2="393.62" y2="236.12"/><line class="cls-38" x1="379.17" y1="205.9" x2="379.17" y2="236.12"/></svg>