<svg id="OBJECTS" xmlns="http://www.w3.org/2000/svg" viewBox="0 0 2033.55 15.22"><defs><style>.cls-1{fill:#fff;}</style></defs><title>top_background</title><path class="cls-1" d="M342.74,32.81l-.39-26.22c-13.88,2.76-27.72,5.75-41.66,8.15-4.81.83-9.87.36-14.81.2-6.94-.23-13.86-.71-20.79-1.12-4.36-.26-8.72-.82-13.08-.83-8.34,0-16.67.34-25,.42-15.53.16-31.07.73-46.57.18-11.1-.4-22.13-2.44-33.21-3.6-8.57-.9-17.16-1.69-25.76-2.3a48.07,48.07,0,0,0-10.7.25A167.59,167.59,0,0,1,72.58,9.69c-8.13-.59-16.35.22-24.51-.15-7.12-.32-14.2-1.47-21.3-2.12C21.85,7,16.92,6.74,12,6.48,7.79,6.25,3.57,6.14-.64,6L-.7,5.13c.87-.19.6,27.68.6,27.68Z"/><path class="cls-1" d="M2045.79,57.12,2045.4.9c-13.88,2.76-37.72,5.75-51.66,8.15-4.81.83-9.87.36-14.81.2-6.94-.23-13.86-.71-20.79-1.12-4.36-.26-8.72-.82-13.08-.83-8.34,0-16.67.34-25,.42-15.53.16-31.07.73-46.57.18-11.1-.4-22.13-2.44-33.21-3.6-8.57-.9-17.16-1.69-25.76-2.3a48.07,48.07,0,0,0-10.7.25A167.59,167.59,0,0,1,1765.63,4c-8.13-.59-16.35.22-24.51-.15-7.12-.32-14.2-1.47-21.3-2.12C1714.9,1.29,1710,1,1705,.79a121.67,121.67,0,0,0-12.67-.18c0,.12,0,.38,0,.1-.31,3.13-.15,56.42.57,56.41Z"/><path class="cls-1" d="M714.2,32.06s.46-21,0-21.45c-.06-.06,0-.82,0-.75s-6.63,3.6-9.92,3.5C692,13,679.7,11.77,667.44,11.81c-21.11.08-42.22,1.06-63.34,1.27-10.66.11-21.32-.83-32-.94-6-.06-12.08.6-18.12.94l0,.31H530.75c-1.92,0-3.93,1.07-5.83.9-9.49-.84-18.94-2-28.42-3a61.08,61.08,0,0,0-6.57,0h.15l-19.82-2,.12-1L465.68,11a67.25,67.25,0,0,0-7.84-2c-5.3-.7-10.64-1.18-16-1.59C438.44,7.1,435,7.1,431.52,7c-1.14,0-2.34.38-3.41.15C424,6.34,420,5.3,415.91,4.31l.93,3.07c-2.83,0-5.37,0-7.91,0-1.74,0-3.48.08-5.22.12l.12-.09c-10.94-2.3-21.82.19-32.74.3-9.15.09-19.58-.64-28.73-1-.94.36.11,8.93-.61,8.18V33.39Z"/><path class="cls-1" d="M1013.42,31.94c.11.41,21.91-25.92,22-25.51-2.37,0-21.67-4-27.22-1.08-11.18,3.38-22.67,4-34.27,4-7.48,0-15,.88-22.43,1-6.73.09-13.46-.46-20.19-.5q-12.43-.08-24.85.24c-8.59.24-17.18.71-25.77,1.1-4,.18-7.94.6-11.91.61-9.12,0-18.24-.19-27.36-.25-4.93,0-9.87.21-14.79,0-17.33-.76-34.65-2.2-52-2.37C757,9,739.14,8.23,721.44,8.65a28.2,28.2,0,0,0-7.29,1.08s-3,1.5-3.37,1.77,2.38,20.19,2.42,19.9Z"/><path class="cls-1" d="M1352.53.49c-3.07,4.86-7.53,3.32-11.14,3.43-14.46.42-28.94,0-43.4.21a230,230,0,0,0-23.66,1.66c-11.64,1.41-22.82-.15-34.39-3.43-1.53,3.5-5,1.48-7.83,1.18-8.09-.85-16,1.36-24,1.37-10.92,0-21.83,0-32.75,0-15.22,0-30.44,0-45.65.07q-19.71.12-39.41.47c-15.44.28-30.88,1.07-46.31.88-7.94-.1-10.85-2.14-18.75-3.35-2.67-.41-13.24,4.75-15.64,3.43l3,35.23,339.9,5.33Z"/><path class="cls-1" d="M1692.43.61c-6.38.24-7.53,2.32-11.14,2.43-14.46.42-28.94,0-43.4.21a230,230,0,0,0-23.66,1.66c-11.64,1.41-22.82-.15-34.39-3.43-1.53,3.5-5,1.48-7.83,1.18-8.09-.85-16,1.36-24,1.37-10.92,0-21.83,0-32.75,0-15.22,0-30.44,0-45.65.07q-19.71.12-39.41.47c-15.44.28-30.88,1.07-46.31.88-7.94-.1-15.88-1.73-23.78-2.95-2.67-.41-5.2-.66-7.61-2V67.64l340,1.23Z"/></svg>